{"title":"PilotsEYE.tv | Munich - LA PALMA | Condor Berlin | Airbus A320 |","uid":6783033,"size":24380150657,"categoryP":"video","categoryS":"hd___movies","magnet":"?xt=urn:btih:3a8831f5b74064c92cc7321365e6eb259a32c5d7&amp;dn=PilotsEYE.tv+%7C+Munich+-+LA+PALMA+%7C+Condor+Berlin+%7C+Airbus+A320+%7C&amp;tr=udp%3A%2F%2Ftracker.openbittorrent.com%3A80&amp;tr=udp%3A%2F%2Fopen.demonii.com%3A1337&amp;tr=udp%3A%2F%2Ftracker.coppersurfer.tk%3A6969&amp;tr=udp%3A%2F%2Fexodus.desync.com%3A6969","seeders":1,"leechers":3,"uploader":"ziki","files":-1,"time":1319982083,"description":"Overall bit rate                 : 27.8 Mbps\nMaximum Overall bit rate         : 48.0 Mbps\n\nVideo\n\nID                               : 4113 (0x1011)\nMenu ID                          : 1 (0x1)\nFormat                           : MPEG Video\nFormat version                   : Version 2\nFormat profile                   : Main@High\nFormat settings, BVOP            : Yes\nFormat settings, Matrix          : Default\nDuration                         : 1h 51mn\nBit rate mode                    : Variable\nBit rate                         : 26.2 Mbps\nNominal bit rate                 : 30.0 Mbps\nWidth                            : 1 920 pixels\nHeight                           : 1 080 pixels\nDisplay aspect ratio             : 16:9\nFrame rate                       : 25.000 fps\nStandard                         : PAL\nResolution                       : 8 bits\nColorimetry                      : 4:2:0\nScan type                        : Interlaced\nScan order                       : Top Field First\nBits/(Pixel*Frame)               : 0.506\nStream size                      : 20.4 GiB (94%)\n\nAudio #1\n\nID                               : 4352 (0x1100)\nMenu ID                          : 1 (0x1)\nFormat                           : AC-3\nFormat/Info                      : Audio Coding 3\nDuration                         : 1h 51mn\nBit rate mode                    : Constant\nBit rate                         : 224 Kbps\nChannel(s)                       : 2 channels\nChannel positions                : L R\nSampling rate                    : 48.0 KHz\nStream size                      : 178 MiB (1%)\n\nAudio #2\n\nID                               : 4353 (0x1101)\nMenu ID                          : 1 (0x1)\nFormat                           : AC-3\nFormat/Info                      : Audio Coding 3\nDuration                         : 1h 51mn\nBit rate mode                    : Constant\nBit rate                         : 192 Kbps\nChannel(s)                       : 2 channels\nChannel positions                : L R\nSampling rate                    : 48.0 KHz\nStream size                      : 153 MiB (1%)\n\nText #1\n\nID                               : 4608 (0x1200)\nMenu ID                          : 1 (0x1)\nFormat                           : PGS\n\nText #2\n\nID                               : 4609 (0x1201)\nMenu ID                          : 1 (0x1)\nFormat                           : PGS\n\n","torrent":{"xt":"urn:btih:3a8831f5b74064c92cc7321365e6eb259a32c5d7","amp;dn":"PilotsEYE.tv+%7C+Munich+-+LA+PALMA+%7C+Condor+Berlin+%7C+Airbus+A320+%7C","amp;tr":["udp%3A%2F%2Ftracker.openbittorrent.com%3A80","udp%3A%2F%2Fopen.demonii.com%3A1337","udp%3A%2F%2Ftracker.coppersurfer.tk%3A6969","udp%3A%2F%2Fexodus.desync.com%3A6969"],"infoHash":"3a8831f5b74064c92cc7321365e6eb259a32c5d7","infoHashBuffer":{"type":"Buffer","data":[58,136,49,245,183,64,100,201,44,199,50,19,101,230,235,37,154,50,197,215]},"announce":[],"urlList":[]}}